<svg id="圖層_1" data-name="圖層 1" xmlns="http://www.w3.org/2000/svg" viewBox="0 0 18 18"><defs><style>.cls-1{fill:#f60;}</style></defs><path class="cls-1" d="M15,7.42a.14.14,0,0,1,.23.11v5a1.17,1.17,0,0,1-1.16,1.17H3.94A1.17,1.17,0,0,1,2.78,12.5v-5A.14.14,0,0,1,3,7.42c.55.42,1.27,1,3.75,2.76A4.42,4.42,0,0,0,9,11.34a4.37,4.37,0,0,0,2.24-1.16C13.72,8.38,14.44,7.84,15,7.42ZM9,10.56c.56,0,1.38-.71,1.78-1C14,7.21,14.25,7,15,6.42A.58.58,0,0,0,15.22,6V5.5a1.17,1.17,0,0,0-1.16-1.17H3.94A1.17,1.17,0,0,0,2.78,5.5V6A.58.58,0,0,0,3,6.42c.75.58,1,.79,4.22,3.13.4.3,1.22,1,1.78,1Z"/></svg>