<svg id="圖層_1" data-name="圖層 1" xmlns="http://www.w3.org/2000/svg" viewBox="0 0 18 18">
    <path class="cls-1"
          d="M9,2.83c-3.77,0-6.85,2.49-6.85,5.56,0,2.74,2.44,5,5.73,5.48.8.17.71.46.53,1.54,0,.18-.14.68.59.37a22,22,0,0,0,5.38-4,5,5,0,0,0,1.47-3.42C15.85,5.32,12.77,2.83,9,2.83ZM6.58,10a.13.13,0,0,1-.13.13H4.53a.12.12,0,0,1-.09,0,.13.13,0,0,1,0-.1V7a.13.13,0,0,1,.13-.14H5A.14.14,0,0,1,5.15,7V9.41h1.3a.13.13,0,0,1,.13.13Zm1.16,0a.13.13,0,0,1-.13.14H7.13A.14.14,0,0,1,7,10V7a.14.14,0,0,1,.14-.14h.48A.14.14,0,0,1,7.74,7Zm3.31,0a.14.14,0,0,1-.14.14h-.47a.14.14,0,0,1-.11-.06L9,8.26V10a.13.13,0,0,1-.14.13H8.35A.13.13,0,0,1,8.21,10V7a.13.13,0,0,1,.14-.13h.47A.13.13,0,0,1,8.93,7L10.3,8.81V7a.13.13,0,0,1,.13-.13h.48a.13.13,0,0,1,.14.13Zm2.65-2.5a.13.13,0,0,1-.13.13H12.26v.5h1.31a.13.13,0,0,1,.13.14v.48a.13.13,0,0,1-.13.14H12.26v.5h1.31a.13.13,0,0,1,.13.13V10a.13.13,0,0,1-.13.14H11.65a.14.14,0,0,1-.14-.14V7a.14.14,0,0,1,.14-.14h1.92A.14.14,0,0,1,13.7,7Z"/>
</svg>
