<?xml version="1.0" encoding="UTF-8"?>
<svg viewBox="0 0 711 147.01" xmlns="http://www.w3.org/2000/svg">
    <g data-name="圖層 1">
        <path class="cls-1" d="M228.81,96.57c-.67-2.06-1.36-4.16-2.13-6.32-4.19-12-5.28-16.83-8-24.39-.84-2.33-1.65-4.46-2.42-6.41s-1.42-3.63-2-5.11-1-2.63-1.4-3.47c-.29.85-.72,2-1.3,3.5s-1.22,3.18-2,5.13-1.55,4.06-2.44,6.39c-.19.49-4.83,15.19-8,24.37-.74,2.17-1.44,4.26-2.09,6.31H183.2q3.35-9.55,6.32-17.65t5.87-15.26q2.85-7.15,5.64-13.6t5.77-12.57h12.6q2.92,6.13,5.74,12.57t5.7,13.6q2.88,7.16,5.87,15.26t6.34,17.65Zm61.3-11.43V96.57H250.64V37.49h13.3V85.14ZM316.37,36.8q13.22,0,20.29,4.65t7.08,15.22q0,10.65-7.16,15.39t-20.47,4.73h-4.17V96.57h-13.3V38.34a75.49,75.49,0,0,1,9.21-1.2c3.23-.22,6.08-.34,8.52-.34Zm.85,11.34q-1.44,0-2.85.09c-.94.06-1.75.11-2.43.17V65.45h4.17q6.92,0,10.41-1.88t3.49-7a8.48,8.48,0,0,0-.89-4.09,6.8,6.8,0,0,0-2.56-2.6,11.5,11.5,0,0,0-4.05-1.36,32.89,32.89,0,0,0-5.29-.39Zm72-10.65h13.3V96.57h-13.3V71.5H366.84V96.57h-13.3V37.49h13.3V60.08h22.34V37.49Zm66.59,59.08c-.67-2.06-1.37-4.16-2.13-6.32-4.19-12-5.47-17.36-8.05-24.39-.83-2.33-1.64-4.46-2.41-6.41s-1.42-3.63-2-5.11-1-2.63-1.39-3.47c-.3.85-.72,2-1.31,3.5s-1.22,3.18-1.94,5.13-1.55,4.06-2.45,6.39c-1.25,3.19-4.73,14.92-8,24.37-.74,2.17-1.44,4.26-2.09,6.31H410.15q3.36-9.55,6.33-17.65t5.87-15.26q2.85-7.15,5.64-13.6t5.77-12.57h12.6q2.92,6.13,5.74,12.57t5.7,13.6q2.88,7.16,5.87,15.26T470,96.57Z"/>
        <path class="cls-2" d="M498.06,97.59c8.78,0,14-3.49,18.41-8.44L510.25,83c-3.24,3.33-6.82,5.63-11.68,5.63-7.93,0-13.47-6.48-13.47-14.49V74c0-7.85,5.45-14.33,13-14.33,5.2,0,8.52,2.31,11.68,5.63l6.39-6.9c-4.18-4.61-9.46-7.76-18-7.76a23.21,23.21,0,0,0-23.36,23.53v.17a23,23,0,0,0,23.28,23.27Z"/>
        <path class="cls-2" d="M560.62,96.57V69.88c0-12-6.48-19-19.78-19a38.65,38.65,0,0,0-17.13,3.75l2.81,8.27a31.39,31.39,0,0,1,12.87-2.81c7.16,0,11.09,3.41,11.09,9.63v.86A37.9,37.9,0,0,0,538,68.69c-10.49,0-18.25,4.78-18.25,14.75v.17c0,9,7.51,13.9,16,13.9A18.22,18.22,0,0,0,550.39,91v5.54Zm-10-16.28c0,5.62-5.12,9.46-11.94,9.46-4.86,0-8.7-2.39-8.7-6.65v-.17c0-4.35,3.84-7,10.32-7a29.58,29.58,0,0,1,10.32,1.79v2.56Z"/>
        <path class="cls-2" d="M569.81,96.57h10.32V71.25c0-7,3.92-11.25,9.63-11.25s9.13,3.92,9.13,10.91V96.57H609.2V71.16c0-7.24,4-11.16,9.64-11.16,5.79,0,9.12,3.83,9.12,11V96.57h10.31V67.84c0-11-6-17.22-15.77-17.22-6.82,0-11.59,3.15-15.26,7.93-2.39-4.78-6.9-7.93-13.38-7.93-6.91,0-10.83,3.75-13.73,7.76V51.55H569.81v45Z"/>
        <path class="cls-2" d="M647.72,110.21H658V89.58c3.16,4.18,7.84,7.93,15.26,7.93,10.74,0,21-8.44,21-23.36V74c0-14.92-10.31-23.36-21-23.36-7.25,0-11.93,3.75-15.26,8.44V51.55H647.72v58.66Zm23.19-21.65c-7,0-13.13-5.72-13.13-14.41V74c0-8.61,6.14-14.41,13.13-14.41S683.79,65.28,683.79,74v.17c0,8.86-5.8,14.41-12.88,14.41Z"/>
        <path class="cls-1" d="m94.44 67.84s-27.45 44.52-50 44.52c-39.29 0-2.67-84.79 26-84.79 20 0 24 40.27 24 40.27z"/>
        <path class="cls-1" d="M127.08,123.84A73.52,73.52,0,0,1,10.13,110.76c6.5,8.84,17.54,14.75,33.24,14.75C82,125.51,104,95.45,104,95.45s1.9,23.75,23,28.39Z"/>
        <path class="cls-1" d="m138.65 39.44a73.58 73.58 0 0 1-1.77 71.32c-4.21-2.3-8.07-6.27-10.31-13-7-20.94-8.39-25.14-8.39-25.14l20.47-33.2z"/>
        <path class="cls-1" d="M73.51,0a73.24,73.24,0,0,1,49.76,19.41L109.34,41.88c-5-13.1-15.27-26.23-35.19-26.23-40.8,0-71,44.54-71,72.47A41.76,41.76,0,0,0,4.48,98.83,73.55,73.55,0,0,1,73.51,0Z"/>
        <path class="cls-2" d="m697.09 27.57v-7.34h-2.82v-1.3h7.22v1.3h-2.82v7.34z"/>
        <path class="cls-2" d="M709.76,18.93H711v8.64h-1.4V21.86l-2.28,4.31h-1.05L704,21.92v5.65H702.6V18.93h1.24l3,5.65Z"/>
    </g>
</svg>
